<svg version="1.1" id="Layer_1" xmlns="http://www.w3.org/2000/svg" xmlns:xlink="http://www.w3.org/1999/xlink" x="0px" y="0px"
	 width="100%" viewBox="0 0 587 594" enable-background="new 0 0 587 594" xml:space="preserve">
<path fill="#FEFEFE" opacity="1.000000" stroke="none" 
	d="
M330.000000,595.000000 
	C220.353241,595.000000 110.706490,595.000000 1.029866,595.000000 
	C1.029866,397.055878 1.029866,199.111725 1.029866,1.083788 
	C196.575241,1.083788 392.150543,1.083788 587.862915,1.083788 
	C587.862915,198.999939 587.862915,396.999969 587.862915,595.000000 
	C504.897308,595.000000 421.912537,595.000000 338.450409,594.646729 
	C339.281891,591.882263 340.590759,589.471008 341.934204,586.668213 
	C341.790985,584.572571 341.858154,582.788391 341.338104,581.196045 
	C341.052856,580.322693 339.777069,579.772888 338.731934,579.037598 
	C338.515930,578.998047 338.082581,578.926453 338.034149,578.589478 
	C336.982819,577.512817 335.979919,576.773193 334.614746,576.045105 
	C333.204956,576.512085 332.130585,576.914795 331.114105,577.431458 
	C323.782593,581.157715 322.905487,586.674500 328.620880,592.680481 
	C329.225494,593.315796 329.547089,594.220337 330.000000,595.000000 
M539.896851,334.441406 
	C554.113098,312.974823 568.359436,291.527893 582.473022,269.994049 
	C583.342712,268.667053 583.873535,266.399200 583.368530,264.999908 
	C577.624756,249.086456 572.270752,232.990265 565.612976,217.457047 
	C548.459473,177.436279 528.067078,139.026749 505.207428,101.993523 
	C487.668060,73.579300 469.300629,45.676060 451.282501,17.557739 
	C449.477692,14.741256 447.654083,12.231733 443.646729,11.986001 
	C407.752350,9.784937 371.896240,6.497632 335.971527,5.389255 
	C303.536591,4.388548 271.005768,5.052804 238.561325,6.214136 
	C207.126358,7.339334 175.742142,9.957211 144.354706,12.187974 
	C141.952774,12.358684 138.969193,14.114564 137.509506,16.069572 
	C131.440918,24.197414 125.666473,32.562370 120.119514,41.059284 
	C88.587303,89.360840 58.133141,138.328110 33.741699,190.710876 
	C23.811422,212.037018 15.356890,234.065353 6.703635,255.961014 
	C4.418051,261.744354 3.327171,267.457947 7.456460,274.207245 
	C28.645741,308.841003 50.716145,342.809021 75.276413,375.192322 
	C100.351082,408.253815 126.972908,439.992218 155.656723,469.908936 
	C196.137985,512.130127 238.983810,551.781860 286.956085,585.561523 
	C293.510254,590.176697 293.474884,590.414062 300.119141,586.032898 
	C328.853333,567.085693 354.347656,544.126892 379.333527,520.693176 
	C416.405762,485.923859 451.035461,448.755646 482.898224,409.151764 
	C502.377258,384.940216 520.677063,359.779999 539.896851,334.441406 
z"/>
<path fill="#BFBFBF" opacity="1.000000" stroke="none" 
	d="
M341.899628,587.059753 
	C340.590759,589.471008 339.281891,591.882263 337.986511,594.646729 
	C335.629425,595.000000 333.258881,595.000000 330.444153,595.000000 
	C329.547089,594.220337 329.225494,593.315796 328.620880,592.680481 
	C322.905487,586.674500 323.782593,581.157715 331.114105,577.431458 
	C332.130585,576.914795 333.204956,576.512085 334.592041,576.403992 
	C334.100159,577.926270 333.024414,579.000488 332.489716,580.297729 
	C331.459717,582.796570 331.927826,584.658752 335.846283,584.907166 
	C333.736145,581.471069 334.452728,579.457764 338.082581,578.926453 
	C338.082581,578.926453 338.515930,578.998047 338.696045,579.341736 
	C338.382538,582.461670 337.888916,585.237854 337.349457,588.271912 
	C339.523285,587.692810 340.711456,587.376282 341.899628,587.059753 
z"/>
<path fill="#636363" opacity="1.000000" stroke="none" 
	d="
M539.701660,334.743652 
	C520.677063,359.779999 502.377258,384.940216 482.898224,409.151764 
	C451.035461,448.755646 416.405762,485.923859 379.333527,520.693176 
	C354.347656,544.126892 328.853333,567.085693 300.119141,586.032898 
	C293.474884,590.414062 293.510254,590.176697 286.956085,585.561523 
	C238.983810,551.781860 196.137985,512.130127 155.656723,469.908936 
	C126.972908,439.992218 100.351082,408.253815 75.276413,375.192322 
	C50.716145,342.809021 28.645741,308.841003 7.456460,274.207245 
	C3.327171,267.457947 4.418051,261.744354 6.703635,255.961014 
	C15.356890,234.065353 23.811422,212.037018 33.741699,190.710876 
	C58.133141,138.328110 88.587303,89.360840 120.119514,41.059284 
	C125.666473,32.562370 131.440918,24.197414 137.509506,16.069572 
	C138.969193,14.114564 141.952774,12.358684 144.354706,12.187974 
	C175.742142,9.957211 207.126358,7.339334 238.561325,6.214136 
	C271.005768,5.052804 303.536591,4.388548 335.971527,5.389255 
	C371.896240,6.497632 407.752350,9.784937 443.646729,11.986001 
	C447.654083,12.231733 449.477692,14.741256 451.282501,17.557739 
	C469.300629,45.676060 487.668060,73.579300 505.207428,101.993523 
	C528.067078,139.026749 548.459473,177.436279 565.612976,217.457047 
	C572.270752,232.990265 577.624756,249.086456 583.368530,264.999908 
	C583.873535,266.399200 583.342712,268.667053 582.473022,269.994049 
	C568.359436,291.527893 554.113098,312.974823 539.701660,334.743652 
M364.573395,257.978363 
	C365.139862,270.256287 365.706329,282.534210 366.272766,294.812134 
	C365.497162,294.947205 364.721527,295.082245 363.945923,295.217316 
	C351.464172,259.536163 338.982452,223.855011 326.289917,187.571259 
	C368.763489,173.151749 410.571045,158.958374 452.564911,144.701721 
	C451.808990,143.276764 451.731842,142.853943 451.493286,142.721161 
	C431.354340,131.512360 411.233490,120.269958 390.994995,109.243446 
	C389.357697,108.351418 386.699524,108.332687 384.866730,108.950073 
	C357.472687,118.177994 330.157684,127.640579 302.764954,136.872482 
	C299.122467,138.100067 294.661499,139.891724 291.416595,138.839920 
	C261.541718,129.156326 231.864700,118.863625 202.074081,108.915901 
	C200.293335,108.321281 197.712158,108.554543 196.050049,109.434723 
	C186.952820,114.252136 178.016541,119.374580 169.043945,124.425934 
	C157.955963,130.668182 146.886551,136.943481 135.809128,143.204498 
	C135.736618,143.721649 135.664124,144.238785 135.591614,144.755936 
	C177.418961,158.961349 219.246307,173.166748 261.701935,187.585526 
	C248.944290,223.989365 236.467819,259.590912 223.991348,295.192444 
	C223.437912,295.069916 222.884476,294.947388 222.331055,294.824860 
	C222.185822,293.776764 221.866943,292.719635 221.921066,291.681946 
	C222.970459,271.559296 223.869720,251.425049 225.305710,231.329346 
	C225.604080,227.153580 224.395721,225.036972 221.187927,222.846298 
	C193.607620,204.011078 166.125076,185.032761 138.587646,166.134598 
	C137.792816,165.589111 136.713577,165.458038 135.137222,164.918030 
	C138.414322,176.395432 141.443649,187.069809 144.510880,197.733276 
	C150.023743,216.899246 155.600922,236.046799 161.073898,255.224136 
	C166.685532,274.887268 172.147141,294.593292 177.780228,314.250214 
	C183.411957,333.902344 189.381058,353.461060 194.724518,373.190094 
	C195.952072,377.722412 197.882233,378.859741 202.006714,378.114197 
	C210.349625,376.606140 218.711823,375.204956 227.062943,373.741974 
	C241.157166,371.272949 255.245743,368.771484 269.343933,366.325470 
	C273.127960,365.668945 275.288544,363.997070 276.404938,359.859650 
	C278.389923,352.503143 281.268799,345.376709 283.987579,338.235474 
	C284.912628,335.805786 284.642883,334.455719 282.432892,332.819153 
	C271.605499,324.801117 260.917480,316.593628 250.242355,308.372375 
	C248.258377,306.844452 246.559265,304.946625 243.941223,302.476624 
	C277.906921,302.476624 310.514740,302.476624 343.122528,302.476624 
	C343.760193,303.267853 344.397827,304.059082 345.035492,304.850311 
	C343.610565,305.327179 341.930969,305.470215 340.800232,306.332794 
	C329.821320,314.707916 319.049286,323.358856 307.954376,331.574799 
	C304.406219,334.202240 304.159210,336.766571 305.575623,340.446838 
	C307.842133,346.335846 310.310883,352.214020 311.802155,358.314819 
	C313.183380,363.965546 316.418701,365.965149 321.797363,366.847839 
	C342.318146,370.215363 362.800629,373.829926 383.253754,377.589783 
	C392.130371,379.221558 392.517517,379.022461 394.977631,370.221832 
	C401.329437,347.499115 407.881439,324.832367 414.354370,302.143494 
	C420.007019,282.329865 425.627960,262.507050 431.323395,242.705719 
	C436.973999,223.060364 442.713440,203.440598 448.385284,183.801331 
	C450.159149,177.659225 451.840149,171.490295 453.792694,164.515503 
	C452.187256,165.242599 451.303253,165.499268 450.580261,165.992096 
	C441.244293,172.356049 431.932281,178.755066 422.612244,185.142395 
	C404.236603,197.735794 385.822235,210.273483 367.542114,223.004013 
	C365.732391,224.264328 363.580048,226.689758 363.564911,228.590134 
	C363.489594,238.074478 364.075226,247.564072 364.573395,257.978363 
M316.499939,434.058472 
	C322.326019,434.049561 328.167938,433.776276 333.972565,434.124908 
	C337.823242,434.356232 339.699280,432.937256 340.940369,429.421600 
	C344.804138,418.476868 348.887695,407.609406 352.922363,396.725464 
	C354.982727,391.167267 354.856781,390.995789 348.928436,390.076874 
	C334.808044,387.888092 320.710876,385.546051 306.577454,383.446777 
	C301.662994,382.716827 296.571198,381.675629 291.730896,382.239563 
	C278.370483,383.796143 265.100037,386.125183 251.794083,388.148987 
	C246.865784,388.898529 241.920395,389.553223 237.016068,390.436005 
	C234.254654,390.933075 232.701233,391.717804 234.248260,395.470459 
	C238.861465,406.660706 242.888992,418.094421 247.047211,429.468903 
	C248.201859,432.627319 249.823135,434.170685 253.577469,434.134918 
	C274.216675,433.938232 294.858826,434.051605 316.499939,434.058472 
z"/>
<path fill="#D7D7D7" opacity="1.000000" stroke="none" 
	d="
M341.934204,586.668213 
	C340.711456,587.376282 339.523285,587.692810 337.349457,588.271912 
	C337.888916,585.237854 338.382538,582.461670 338.912048,579.381348 
	C339.777069,579.772888 341.052856,580.322693 341.338104,581.196045 
	C341.858154,582.788391 341.790985,584.572571 341.934204,586.668213 
z"/>
<path fill="#D7D7D7" opacity="1.000000" stroke="none" 
	d="
M338.034149,578.589478 
	C334.452728,579.457764 333.736145,581.471069 335.846283,584.907166 
	C331.927826,584.658752 331.459717,582.796570 332.489716,580.297729 
	C333.024414,579.000488 334.100159,577.926270 334.954254,576.392456 
	C335.979919,576.773193 336.982819,577.512817 338.034149,578.589478 
z"/>
<path fill="#FCFCFC" opacity="1.000000" stroke="none" 
	d="
M364.500854,257.515076 
	C364.075226,247.564072 363.489594,238.074478 363.564911,228.590134 
	C363.580048,226.689758 365.732391,224.264328 367.542114,223.004013 
	C385.822235,210.273483 404.236603,197.735794 422.612244,185.142395 
	C431.932281,178.755066 441.244293,172.356049 450.580261,165.992096 
	C451.303253,165.499268 452.187256,165.242599 453.792694,164.515503 
	C451.840149,171.490295 450.159149,177.659225 448.385284,183.801331 
	C442.713440,203.440598 436.973999,223.060364 431.323395,242.705719 
	C425.627960,262.507050 420.007019,282.329865 414.354370,302.143494 
	C407.881439,324.832367 401.329437,347.499115 394.977631,370.221832 
	C392.517517,379.022461 392.130371,379.221558 383.253754,377.589783 
	C362.800629,373.829926 342.318146,370.215363 321.797363,366.847839 
	C316.418701,365.965149 313.183380,363.965546 311.802155,358.314819 
	C310.310883,352.214020 307.842133,346.335846 305.575623,340.446838 
	C304.159210,336.766571 304.406219,334.202240 307.954376,331.574799 
	C319.049286,323.358856 329.821320,314.707916 340.800232,306.332794 
	C341.930969,305.470215 343.610565,305.327179 345.035492,304.850311 
	C344.397827,304.059082 343.760193,303.267853 343.122528,302.476624 
	C310.514740,302.476624 277.906921,302.476624 243.941223,302.476624 
	C246.559265,304.946625 248.258377,306.844452 250.242355,308.372375 
	C260.917480,316.593628 271.605499,324.801117 282.432892,332.819153 
	C284.642883,334.455719 284.912628,335.805786 283.987579,338.235474 
	C281.268799,345.376709 278.389923,352.503143 276.404938,359.859650 
	C275.288544,363.997070 273.127960,365.668945 269.343933,366.325470 
	C255.245743,368.771484 241.157166,371.272949 227.062943,373.741974 
	C218.711823,375.204956 210.349625,376.606140 202.006714,378.114197 
	C197.882233,378.859741 195.952072,377.722412 194.724518,373.190094 
	C189.381058,353.461060 183.411957,333.902344 177.780228,314.250214 
	C172.147141,294.593292 166.685532,274.887268 161.073898,255.224136 
	C155.600922,236.046799 150.023743,216.899246 144.510880,197.733276 
	C141.443649,187.069809 138.414322,176.395432 135.137222,164.918030 
	C136.713577,165.458038 137.792816,165.589111 138.587646,166.134598 
	C166.125076,185.032761 193.607620,204.011078 221.187927,222.846298 
	C224.395721,225.036972 225.604080,227.153580 225.305710,231.329346 
	C223.869720,251.425049 222.970459,271.559296 221.921066,291.681946 
	C221.866943,292.719635 222.185822,293.776764 222.331055,294.824860 
	C222.884476,294.947388 223.437912,295.069916 223.991348,295.192444 
	C236.467819,259.590912 248.944290,223.989365 261.701935,187.585526 
	C219.246307,173.166748 177.418961,158.961349 135.591614,144.755936 
	C135.664124,144.238785 135.736618,143.721649 135.809128,143.204498 
	C146.886551,136.943481 157.955963,130.668182 169.043945,124.425934 
	C178.016541,119.374580 186.952820,114.252136 196.050049,109.434723 
	C197.712158,108.554543 200.293335,108.321281 202.074081,108.915901 
	C231.864700,118.863625 261.541718,129.156326 291.416595,138.839920 
	C294.661499,139.891724 299.122467,138.100067 302.764954,136.872482 
	C330.157684,127.640579 357.472687,118.177994 384.866730,108.950073 
	C386.699524,108.332687 389.357697,108.351418 390.994995,109.243446 
	C411.233490,120.269958 431.354340,131.512360 451.493286,142.721161 
	C451.731842,142.853943 451.808990,143.276764 452.564911,144.701721 
	C410.571045,158.958374 368.763489,173.151749 326.289917,187.571259 
	C338.982452,223.855011 351.464172,259.536163 363.945923,295.217316 
	C364.721527,295.082245 365.497162,294.947205 366.272766,294.812134 
	C365.706329,282.534210 365.139862,270.256287 364.500854,257.515076 
z"/>
<path fill="#FBFBFB" opacity="1.000000" stroke="none" 
	d="
M315.999939,434.058533 
	C294.858826,434.051605 274.216675,433.938232 253.577469,434.134918 
	C249.823135,434.170685 248.201859,432.627319 247.047211,429.468903 
	C242.888992,418.094421 238.861465,406.660706 234.248260,395.470459 
	C232.701233,391.717804 234.254654,390.933075 237.016068,390.436005 
	C241.920395,389.553223 246.865784,388.898529 251.794083,388.148987 
	C265.100037,386.125183 278.370483,383.796143 291.730896,382.239563 
	C296.571198,381.675629 301.662994,382.716827 306.577454,383.446777 
	C320.710876,385.546051 334.808044,387.888092 348.928436,390.076874 
	C354.856781,390.995789 354.982727,391.167267 352.922363,396.725464 
	C348.887695,407.609406 344.804138,418.476868 340.940369,429.421600 
	C339.699280,432.937256 337.823242,434.356232 333.972565,434.124908 
	C328.167938,433.776276 322.326019,434.049561 315.999939,434.058533 
z"/>
</svg>